<svg width="120" height="120" viewBox="0 0 120 120" fill="none" xmlns="http://www.w3.org/2000/svg">
<g clip-path="url(#clip0_29_152)">
<path d="M41.9996 51H50.9993V60.0003C50.9993 62.3873 50.0512 64.6765 48.3634 66.3644C46.6756 68.0523 44.3864 69.0005 41.9996 69.0005C39.6127 69.0005 37.3235 68.0523 35.6357 66.3644C33.9479 64.6765 32.9998 62.3873 32.9998 60.0003C32.9998 57.6132 33.9479 55.324 35.6357 53.6361C37.3235 51.9482 39.6127 51 41.9996 51Z" fill="#282650"/>
<path d="M59.9975 69.0001C58.2176 69.0001 56.4777 69.528 54.9978 70.517C53.5178 71.5059 52.3644 72.9115 51.6833 74.556C51.0022 76.2005 50.824 78.0101 51.1712 79.7559C51.5185 81.5017 52.3756 83.1053 53.6342 84.364C54.8928 85.6226 56.4963 86.4798 58.242 86.8271C59.9877 87.1743 61.7972 86.9961 63.4416 86.315C65.0861 85.6338 66.4916 84.4803 67.4805 83.0003C68.4694 81.5203 68.9973 79.7803 68.9973 78.0003V69.0001H59.9975Z" fill="#282650"/>
<path d="M59.9978 33C62.3847 33 64.6738 33.9482 66.3616 35.6361C68.0494 37.324 68.9976 39.6132 68.9976 42.0002V51.0005H50.9983V42.0002C50.9983 39.6133 51.9464 37.3241 53.6342 35.6362C55.3219 33.9483 57.6109 33.0001 59.9978 33Z" fill="#282650"/>
<path d="M69.0007 51H87.0003C87.0003 60.9409 78.9416 69.0005 69.0007 69.0005V51Z" fill="#282650"/>
</g>
</svg>
