<svg width="120" height="120" viewBox="0 0 120 120" fill="none" xmlns="http://www.w3.org/2000/svg">
<g clip-path="url(#clip0_29_82)">
<path d="M60 65.8L54.2 60L60 54.2L65.8 60L60 65.8ZM54.8042 50.6959L49.0042 44.8959L56.9188 36.9813C57.3618 36.5382 57.8452 36.216 58.3688 36.0146C58.8924 35.8132 59.4361 35.7125 60 35.7125C60.5639 35.7125 61.1077 35.8132 61.6313 36.0146C62.1549 36.216 62.6382 36.5382 63.0813 36.9813L70.9959 44.8959L65.1959 50.6959L60 45.5L54.8042 50.6959ZM44.8959 70.9959L36.9813 63.0813C36.5382 62.6382 36.216 62.1549 36.0146 61.6313C35.8132 61.1077 35.7125 60.5639 35.7125 60C35.7125 59.4361 35.8132 58.8924 36.0146 58.3688C36.216 57.8452 36.5382 57.3618 36.9813 56.9188L44.8959 49.0042L50.6959 54.8042L45.5 60L50.6959 65.1959L44.8959 70.9959ZM75.1042 70.9959L69.3042 65.1959L74.5 60L69.3042 54.8042L75.1042 49.0042L83.0188 56.9188C83.4618 57.3618 83.7841 57.8452 83.9854 58.3688C84.1868 58.8924 84.2875 59.4361 84.2875 60C84.2875 60.5639 84.1868 61.1077 83.9854 61.6313C83.7841 62.1549 83.4618 62.6382 83.0188 63.0813L75.1042 70.9959ZM56.9188 83.0188L49.0042 75.1042L54.8042 69.3042L60 74.5L65.1959 69.3042L70.9959 75.1042L63.0813 83.0188C62.6382 83.4618 62.1549 83.7841 61.6313 83.9854C61.1077 84.1868 60.5639 84.2875 60 84.2875C59.4361 84.2875 58.8924 84.1868 58.3688 83.9854C57.8452 83.7841 57.3618 83.4618 56.9188 83.0188Z" fill="#282650"/>
</g>
</svg>
