<svg width="120" height="120" viewBox="0 0 120 120" fill="none" xmlns="http://www.w3.org/2000/svg">
<g clip-path="url(#clip0_29_47)">
<path d="M44.05 80.3C42.8538 80.3 41.8297 79.874 40.9778 79.0221C40.1259 78.1703 39.7 77.1462 39.7 75.95V47.3125C39.7 46.7341 39.8208 46.1867 40.0625 45.6703C40.3042 45.154 40.6063 44.6743 40.9688 44.2312L44.2313 40.9687C44.5938 40.5256 45.057 40.2034 45.6208 40.002C46.1847 39.8006 46.7486 39.7 47.3125 39.7H72.6875C73.2514 39.7 73.8052 39.8006 74.349 40.002C74.8927 40.2034 75.366 40.5256 75.7688 40.9687L79.0313 44.2312C79.3938 44.6743 79.6958 45.154 79.9375 45.6703C80.1792 46.1867 80.3 46.7341 80.3 47.3125V75.95C80.3 77.1462 79.8741 78.1703 79.0222 79.0221C78.1703 79.874 77.1463 80.3 75.95 80.3H44.05ZM44.4125 46.95H75.5875L72.6875 44.05H47.3125L44.4125 46.95ZM44.05 75.95H75.95V51.3H44.05V75.95ZM67.6125 63.625L64.1688 67.1291C63.7257 67.5722 63.5142 68.0756 63.5344 68.6395C63.5545 69.2034 63.7861 69.7069 64.2292 70.15C64.6722 70.593 65.1757 70.8145 65.7396 70.8145C66.3035 70.8145 66.807 70.593 67.25 70.15L72.2646 65.1354C72.7077 64.7068 72.9292 64.207 72.9292 63.6358C72.9292 63.0647 72.7077 62.5576 72.2646 62.1145L67.25 57.1C66.807 56.6569 66.3035 56.4354 65.7396 56.4354C65.1757 56.4354 64.6722 56.6569 64.2292 57.1C63.7861 57.543 63.5545 58.0565 63.5344 58.6406C63.5142 59.2246 63.7257 59.7381 64.1688 60.1812L67.6125 63.625ZM52.3875 63.625L55.8313 60.1208C56.2743 59.6777 56.4858 59.1743 56.4656 58.6104C56.4455 58.0465 56.2139 57.543 55.7708 57.1C55.3278 56.6569 54.8243 56.4354 54.2604 56.4354C53.6965 56.4354 53.1931 56.6569 52.75 57.1L47.7354 62.1145C47.2924 62.5431 47.0708 63.0429 47.0708 63.6141C47.0708 64.1852 47.2924 64.6923 47.7354 65.1354L52.75 70.15C53.1931 70.593 53.6965 70.8145 54.2604 70.8145C54.8243 70.8145 55.3278 70.593 55.7708 70.15C56.2139 69.7069 56.4455 69.1934 56.4656 68.6093C56.4858 68.0253 56.2743 67.5118 55.8313 67.0687L52.3875 63.625Z" fill="#282650"/>
</g>
</svg>
