<svg width="120" height="120" viewBox="0 0 120 120" fill="none" xmlns="http://www.w3.org/2000/svg">
<g clip-path="url(#clip0_29_13)">
<path d="M46.95 64.9V80.125C46.95 80.7412 46.7428 81.2578 46.3283 81.6746C45.9139 82.0915 45.4003 82.3 44.7877 82.3C44.1751 82.3 43.6573 82.0915 43.2344 81.6746C42.8115 81.2578 42.6 80.7412 42.6 80.125V43.875C42.6 43.2587 42.8084 42.7421 43.2253 42.3253C43.6422 41.9084 44.1588 41.7 44.775 41.7H61.1926C61.7267 41.7 62.1887 41.8528 62.5786 42.1585C62.9685 42.4646 63.2166 42.8555 63.3229 43.3312L64.35 47.5H75.225C75.8413 47.5 76.3578 47.7084 76.7747 48.1253C77.1916 48.5421 77.4 49.0587 77.4 49.675V68.525C77.4 69.1412 77.1916 69.6578 76.7747 70.0746C76.3578 70.4915 75.8413 70.7 75.225 70.7H64.5917C64.0858 70.7 63.6339 70.5471 63.2359 70.2414C62.8384 69.9353 62.5854 69.5444 62.4771 69.0687L61.45 64.9H46.95ZM66.2833 66.35H73.05V51.85H62.6583C62.1525 51.85 61.7005 51.6971 61.3026 51.3914C60.905 51.0853 60.6521 50.6944 60.5438 50.2187L59.5167 46.05H46.95V60.55H63.1417C63.6476 60.55 64.0995 60.7028 64.4974 61.0085C64.895 61.3146 65.1479 61.7055 65.2563 62.1812L66.2833 66.35Z" fill="#282650"/>
</g>
</svg>
