<svg width="260" height="64" viewBox="0 0 260 64" fill="none" xmlns="http://www.w3.org/2000/svg">
<rect width="64" height="63.9996" rx="31.9998" fill="#282650"/>
<path d="M17.4931 24.7465H24.7465V31.9999C24.7465 33.9236 23.9823 35.7685 22.622 37.1288C21.2617 38.489 19.4168 39.2532 17.4931 39.2532C15.5694 39.2532 13.7245 38.489 12.3642 37.1288C11.0039 35.7685 10.2397 33.9236 10.2397 31.9999C10.2397 30.0761 11.0039 28.2312 12.3642 26.8709C13.7245 25.5107 15.5694 24.7465 17.4931 24.7465Z" fill="white"/>
<path d="M31.9994 39.2532C30.5649 39.2533 29.1626 39.6787 27.9699 40.4757C26.7771 41.2727 25.8475 42.4055 25.2986 43.7308C24.7496 45.0561 24.606 46.5145 24.8859 47.9214C25.1657 49.3284 25.8565 50.6208 26.8709 51.6351C27.8852 52.6495 29.1776 53.3403 30.5846 53.6201C31.9915 53.9 33.4498 53.7564 34.7752 53.2074C36.1005 52.6585 37.2333 51.7289 38.0303 50.5361C38.8273 49.3434 39.2527 47.9411 39.2528 46.5066V39.2532H31.9994Z" fill="white"/>
<path d="M31.9996 10.2397C33.9233 10.2397 35.7683 11.0039 37.1285 12.3642C38.4888 13.7245 39.253 15.5694 39.253 17.4931V24.7465L24.7465 24.7465L24.7465 17.4931C24.7465 15.5694 25.5106 13.7245 26.8709 12.3643C28.2311 11.004 30.0759 10.2398 31.9996 10.2397Z" fill="white"/>
<path d="M39.253 24.7465L53.7599 24.7465C53.7599 32.7583 47.2646 39.2532 39.2528 39.2532L39.253 24.7465Z" fill="white"/>
<path d="M212.241 52.676C215.198 54.2253 218.624 55 222.519 55C226.555 55 230.051 54.2253 233.008 52.676C236.011 51.0798 238.311 48.8497 239.907 45.9858C241.549 43.122 242.371 39.7886 242.371 35.9857V9H234.205V35.9857C234.205 38.2862 233.735 40.305 232.797 42.0421C231.858 43.7323 230.497 45.0703 228.714 46.0563C226.977 46.9952 224.959 47.4647 222.66 47.4647C220.407 47.4647 218.412 46.9952 216.676 46.0563C214.939 45.0703 213.578 43.7323 212.593 42.0421C211.654 40.305 211.185 38.2862 211.185 35.9857V9H203.019V35.9857C203.019 39.7886 203.817 43.122 205.412 45.9858C207.055 48.8497 209.331 51.0798 212.241 52.676Z" fill="#282650"/>
<path d="M251.834 9V54.0141H260V9H251.834Z" fill="#282650"/>
<path fill-rule="evenodd" clip-rule="evenodd" d="M120.304 54.084L115.542 41.9713H97.4201L92.6588 54.084H84L102.117 9.06997H110.775L128.963 54.084H120.304ZM106.481 18.9198L112.691 34.7177H100.271L106.481 18.9198Z" fill="#282650"/>
<path d="M145.956 54.9291C143.609 54.9291 141.451 54.577 139.479 53.8728C137.508 53.1685 135.819 52.1826 134.411 50.915C133.003 49.6004 131.924 48.0746 131.173 46.3375L138.001 43.3093C138.705 44.6239 139.738 45.7272 141.099 46.6192C142.506 47.5112 144.055 47.9572 145.745 47.9572C147.575 47.9572 149.03 47.6521 150.109 47.0417C151.236 46.3844 151.799 45.4924 151.799 44.3657C151.799 43.2858 151.376 42.4642 150.532 41.9008C149.687 41.2905 148.49 40.7975 146.941 40.422L143.633 39.5065C140.301 38.6614 137.696 37.3233 135.819 35.4923C133.942 33.6144 133.003 31.4782 133.003 29.0838C133.003 25.5627 134.129 22.8397 136.382 20.9148C138.682 18.9899 141.967 18.0274 146.237 18.0274C148.396 18.0274 150.367 18.356 152.151 19.0133C153.981 19.6237 155.553 20.5157 156.867 21.6894C158.181 22.8162 159.097 24.1542 159.613 25.7035L153.066 28.6613C152.597 27.4876 151.705 26.5956 150.391 25.9852C149.077 25.3279 147.622 24.9993 146.026 24.9993C144.431 24.9993 143.187 25.3514 142.295 26.0556C141.404 26.7129 140.958 27.6519 140.958 28.8726C140.958 29.5768 141.357 30.2341 142.154 30.8444C142.952 31.4078 144.102 31.8773 145.604 32.2529L149.757 33.2388C152.057 33.8022 153.934 34.6942 155.389 35.9149C156.844 37.0886 157.923 38.4266 158.627 39.929C159.331 41.3844 159.683 42.8633 159.683 44.3657C159.683 46.4783 159.073 48.3328 157.853 49.9291C156.68 51.5253 155.061 52.7695 152.996 53.6615C150.931 54.5066 148.584 54.9291 145.956 54.9291Z" fill="#282650"/>
<path d="M174.582 43.8372V54.084H166.698V9.06997H174.582V33.2066L187.746 18.8725H197.25L184.007 33.4572L198.447 54.084H189.084L178.896 39.0861L174.582 43.8372Z" fill="#282650"/>
</svg>
